<mxfile host="app.diagrams.net" modified="2022-11-08T01:52:07.206Z" agent="5.0 (Windows NT 10.0; Win64; x64) AppleWebKit/537.36 (KHTML, like Gecko) Chrome/107.0.0.0 Safari/537.36" etag="rrIGXS-h8KDlAgJi-odA" version="20.5.1" type="github" pages="3">
  <diagram id="R2lEEEUBdFMjLlhIrx00" name="データベース">
    <mxGraphModel dx="1120" dy="1872" grid="1" gridSize="10" guides="1" tooltips="1" connect="1" arrows="1" fold="1" page="1" pageScale="1" pageWidth="850" pageHeight="1100" math="0" shadow="0" extFonts="Permanent Marker^https://fonts.googleapis.com/css?family=Permanent+Marker">
      <root>
        <mxCell id="0" />
        <mxCell id="1" parent="0" />
        <mxCell id="aj6Kg2OsS2jxbSp1Vwx0-1" value="user" style="swimlane;fontStyle=0;childLayout=stackLayout;horizontal=1;startSize=26;horizontalStack=0;resizeParent=1;resizeParentMax=0;resizeLast=0;collapsible=1;marginBottom=0;align=center;fontSize=14;" parent="1" vertex="1">
          <mxGeometry x="120" y="180" width="160" height="116" as="geometry" />
        </mxCell>
        <mxCell id="aj6Kg2OsS2jxbSp1Vwx0-2" value="mail" style="text;strokeColor=none;fillColor=none;spacingLeft=4;spacingRight=4;overflow=hidden;rotatable=0;points=[[0,0.5],[1,0.5]];portConstraint=eastwest;fontSize=12;" parent="aj6Kg2OsS2jxbSp1Vwx0-1" vertex="1">
          <mxGeometry y="26" width="160" height="30" as="geometry" />
        </mxCell>
        <mxCell id="VBLQJvZVRpHeq1K6qIMy-1" value="" style="endArrow=none;html=1;rounded=0;" parent="aj6Kg2OsS2jxbSp1Vwx0-1" edge="1">
          <mxGeometry relative="1" as="geometry">
            <mxPoint y="60" as="sourcePoint" />
            <mxPoint x="160" y="60" as="targetPoint" />
            <Array as="points">
              <mxPoint x="80" y="60" />
              <mxPoint x="90" y="60" />
            </Array>
          </mxGeometry>
        </mxCell>
        <mxCell id="aj6Kg2OsS2jxbSp1Vwx0-3" value="name" style="text;strokeColor=none;fillColor=none;spacingLeft=4;spacingRight=4;overflow=hidden;rotatable=0;points=[[0,0.5],[1,0.5]];portConstraint=eastwest;fontSize=12;" parent="aj6Kg2OsS2jxbSp1Vwx0-1" vertex="1">
          <mxGeometry y="56" width="160" height="30" as="geometry" />
        </mxCell>
        <mxCell id="aj6Kg2OsS2jxbSp1Vwx0-4" value="passwd" style="text;strokeColor=none;fillColor=none;spacingLeft=4;spacingRight=4;overflow=hidden;rotatable=0;points=[[0,0.5],[1,0.5]];portConstraint=eastwest;fontSize=12;" parent="aj6Kg2OsS2jxbSp1Vwx0-1" vertex="1">
          <mxGeometry y="86" width="160" height="30" as="geometry" />
        </mxCell>
        <mxCell id="aj6Kg2OsS2jxbSp1Vwx0-12" value="group" style="swimlane;fontStyle=0;childLayout=stackLayout;horizontal=1;startSize=26;fillColor=none;horizontalStack=0;resizeParent=1;resizeParentMax=0;resizeLast=0;collapsible=1;marginBottom=0;" parent="1" vertex="1">
          <mxGeometry x="650" y="206" width="140" height="104" as="geometry" />
        </mxCell>
        <mxCell id="aj6Kg2OsS2jxbSp1Vwx0-13" value="groupID" style="text;strokeColor=none;fillColor=none;align=left;verticalAlign=top;spacingLeft=4;spacingRight=4;overflow=hidden;rotatable=0;points=[[0,0.5],[1,0.5]];portConstraint=eastwest;" parent="aj6Kg2OsS2jxbSp1Vwx0-12" vertex="1">
          <mxGeometry y="26" width="140" height="26" as="geometry" />
        </mxCell>
        <mxCell id="VBLQJvZVRpHeq1K6qIMy-2" value="" style="endArrow=none;html=1;rounded=0;" parent="aj6Kg2OsS2jxbSp1Vwx0-12" edge="1">
          <mxGeometry relative="1" as="geometry">
            <mxPoint y="51" as="sourcePoint" />
            <mxPoint x="140" y="51.129999999999995" as="targetPoint" />
          </mxGeometry>
        </mxCell>
        <mxCell id="aj6Kg2OsS2jxbSp1Vwx0-14" value="password" style="text;strokeColor=none;fillColor=none;align=left;verticalAlign=top;spacingLeft=4;spacingRight=4;overflow=hidden;rotatable=0;points=[[0,0.5],[1,0.5]];portConstraint=eastwest;" parent="aj6Kg2OsS2jxbSp1Vwx0-12" vertex="1">
          <mxGeometry y="52" width="140" height="26" as="geometry" />
        </mxCell>
        <mxCell id="aj6Kg2OsS2jxbSp1Vwx0-15" value="member" style="text;strokeColor=none;fillColor=none;align=left;verticalAlign=top;spacingLeft=4;spacingRight=4;overflow=hidden;rotatable=0;points=[[0,0.5],[1,0.5]];portConstraint=eastwest;" parent="aj6Kg2OsS2jxbSp1Vwx0-12" vertex="1">
          <mxGeometry y="78" width="140" height="26" as="geometry" />
        </mxCell>
        <mxCell id="5d4a9EpfKKOJ-qMOXIBG-1" value="Text" style="text;strokeColor=none;fillColor=none;html=1;align=center;verticalAlign=middle;whiteSpace=wrap;rounded=0;fontSize=16;" parent="1" vertex="1">
          <mxGeometry x="760" y="-700" width="60" height="30" as="geometry" />
        </mxCell>
      </root>
    </mxGraphModel>
  </diagram>
  <diagram id="dUZ0RsoAkltjo2ZorXvp" name="画面設計">
    <mxGraphModel dx="1120" dy="772" grid="1" gridSize="10" guides="1" tooltips="1" connect="1" arrows="1" fold="1" page="1" pageScale="1" pageWidth="827" pageHeight="1169" math="0" shadow="0">
      <root>
        <mxCell id="0" />
        <mxCell id="1" parent="0" />
        <mxCell id="e1OsijNRe9LHoQQsWiF2-1" value="ユーザ登録" style="shape=umlFrame;whiteSpace=wrap;html=1;" vertex="1" parent="1">
          <mxGeometry x="40" y="570" width="390" height="220" as="geometry" />
        </mxCell>
        <mxCell id="aycoX4Oe_mT94GeweJdh-1" value="状態登録・確認" style="shape=umlFrame;whiteSpace=wrap;html=1;" vertex="1" parent="1">
          <mxGeometry x="30" y="820" width="440" height="310" as="geometry" />
        </mxCell>
        <mxCell id="fT9O1GAQfltOt-9JD3o6-5" style="edgeStyle=orthogonalEdgeStyle;rounded=0;orthogonalLoop=1;jettySize=auto;html=1;entryX=0.5;entryY=1;entryDx=0;entryDy=0;entryPerimeter=0;" edge="1" parent="1" source="daQx8nhkMeJHNlXXjuKO-2" target="fT9O1GAQfltOt-9JD3o6-4">
          <mxGeometry relative="1" as="geometry" />
        </mxCell>
        <mxCell id="daQx8nhkMeJHNlXXjuKO-2" value="" style="shape=actor;whiteSpace=wrap;html=1;" parent="1" vertex="1">
          <mxGeometry x="110" y="460" width="40" height="60" as="geometry" />
        </mxCell>
        <mxCell id="daQx8nhkMeJHNlXXjuKO-3" value="" style="html=1;whiteSpace=wrap;shape=isoCube2;backgroundOutline=1;isoAngle=15;" parent="1" vertex="1">
          <mxGeometry x="520" y="60" width="90" height="100" as="geometry" />
        </mxCell>
        <mxCell id="fT9O1GAQfltOt-9JD3o6-13" style="edgeStyle=orthogonalEdgeStyle;rounded=0;orthogonalLoop=1;jettySize=auto;html=1;entryX=0.5;entryY=0;entryDx=0;entryDy=0;entryPerimeter=0;" edge="1" parent="1" source="JlvIoMDnqGtTmx8Zxkya-1" target="JlvIoMDnqGtTmx8Zxkya-2">
          <mxGeometry relative="1" as="geometry" />
        </mxCell>
        <mxCell id="JlvIoMDnqGtTmx8Zxkya-1" value="AWS" style="ellipse;shape=cloud;whiteSpace=wrap;html=1;align=center;" vertex="1" parent="1">
          <mxGeometry x="280" y="130" width="100" height="60" as="geometry" />
        </mxCell>
        <mxCell id="fT9O1GAQfltOt-9JD3o6-14" style="edgeStyle=orthogonalEdgeStyle;rounded=0;orthogonalLoop=1;jettySize=auto;html=1;" edge="1" parent="1" source="JlvIoMDnqGtTmx8Zxkya-2">
          <mxGeometry relative="1" as="geometry">
            <mxPoint x="330" y="190" as="targetPoint" />
          </mxGeometry>
        </mxCell>
        <mxCell id="JlvIoMDnqGtTmx8Zxkya-2" value="" style="strokeWidth=2;html=1;shape=mxgraph.flowchart.database;whiteSpace=wrap;" vertex="1" parent="1">
          <mxGeometry x="290" y="280" width="60" height="60" as="geometry" />
        </mxCell>
        <mxCell id="fT9O1GAQfltOt-9JD3o6-7" style="edgeStyle=orthogonalEdgeStyle;rounded=0;orthogonalLoop=1;jettySize=auto;html=1;startArrow=none;" edge="1" parent="1" source="fT9O1GAQfltOt-9JD3o6-8" target="JlvIoMDnqGtTmx8Zxkya-2">
          <mxGeometry relative="1" as="geometry" />
        </mxCell>
        <mxCell id="fT9O1GAQfltOt-9JD3o6-10" style="edgeStyle=orthogonalEdgeStyle;rounded=0;orthogonalLoop=1;jettySize=auto;html=1;entryX=0.5;entryY=1;entryDx=0;entryDy=0;entryPerimeter=0;startArrow=none;" edge="1" parent="1" source="fT9O1GAQfltOt-9JD3o6-11" target="daQx8nhkMeJHNlXXjuKO-3">
          <mxGeometry relative="1" as="geometry" />
        </mxCell>
        <mxCell id="fT9O1GAQfltOt-9JD3o6-3" value="状態登録・確認" style="shape=note;size=20;whiteSpace=wrap;html=1;" vertex="1" parent="1">
          <mxGeometry x="540" y="260" width="100" height="100" as="geometry" />
        </mxCell>
        <mxCell id="fT9O1GAQfltOt-9JD3o6-6" style="edgeStyle=orthogonalEdgeStyle;rounded=0;orthogonalLoop=1;jettySize=auto;html=1;entryX=0;entryY=0.5;entryDx=0;entryDy=0;entryPerimeter=0;" edge="1" parent="1" source="fT9O1GAQfltOt-9JD3o6-4" target="JlvIoMDnqGtTmx8Zxkya-2">
          <mxGeometry relative="1" as="geometry" />
        </mxCell>
        <mxCell id="fT9O1GAQfltOt-9JD3o6-4" value="ユーザ登録" style="shape=note;size=20;whiteSpace=wrap;html=1;" vertex="1" parent="1">
          <mxGeometry x="60" y="275" width="100" height="100" as="geometry" />
        </mxCell>
        <mxCell id="fT9O1GAQfltOt-9JD3o6-8" value="ユーザ&lt;br&gt;検索機能" style="text;html=1;strokeColor=none;fillColor=none;align=center;verticalAlign=middle;whiteSpace=wrap;rounded=0;" vertex="1" parent="1">
          <mxGeometry x="410" y="375" width="60" height="30" as="geometry" />
        </mxCell>
        <mxCell id="fT9O1GAQfltOt-9JD3o6-9" value="" style="edgeStyle=orthogonalEdgeStyle;rounded=0;orthogonalLoop=1;jettySize=auto;html=1;endArrow=none;" edge="1" parent="1" source="fT9O1GAQfltOt-9JD3o6-3" target="fT9O1GAQfltOt-9JD3o6-8">
          <mxGeometry relative="1" as="geometry">
            <mxPoint x="540" y="310" as="sourcePoint" />
            <mxPoint x="440" y="520" as="targetPoint" />
          </mxGeometry>
        </mxCell>
        <mxCell id="fT9O1GAQfltOt-9JD3o6-11" value="IoT状態変化" style="text;html=1;strokeColor=none;fillColor=none;align=center;verticalAlign=middle;whiteSpace=wrap;rounded=0;" vertex="1" parent="1">
          <mxGeometry x="550" y="205" width="80" height="30" as="geometry" />
        </mxCell>
        <mxCell id="fT9O1GAQfltOt-9JD3o6-12" value="" style="edgeStyle=orthogonalEdgeStyle;rounded=0;orthogonalLoop=1;jettySize=auto;html=1;entryX=0.5;entryY=1;entryDx=0;entryDy=0;entryPerimeter=0;endArrow=none;" edge="1" parent="1" source="fT9O1GAQfltOt-9JD3o6-3" target="fT9O1GAQfltOt-9JD3o6-11">
          <mxGeometry relative="1" as="geometry">
            <mxPoint x="590" y="260" as="sourcePoint" />
            <mxPoint x="565" y="160" as="targetPoint" />
          </mxGeometry>
        </mxCell>
        <mxCell id="Wh2VIiE55b8Cz8zaWU0I-1" value="ログアウト" style="shape=note;size=20;whiteSpace=wrap;html=1;" vertex="1" parent="1">
          <mxGeometry x="280" y="1010" width="100" height="100" as="geometry" />
        </mxCell>
        <mxCell id="Wh2VIiE55b8Cz8zaWU0I-2" value="アカウント登録" style="shape=note;size=20;whiteSpace=wrap;html=1;" vertex="1" parent="1">
          <mxGeometry x="100" y="650" width="100" height="100" as="geometry" />
        </mxCell>
        <mxCell id="Wh2VIiE55b8Cz8zaWU0I-3" value="ログイン" style="shape=note;size=20;whiteSpace=wrap;html=1;" vertex="1" parent="1">
          <mxGeometry x="300" y="650" width="100" height="100" as="geometry" />
        </mxCell>
        <mxCell id="e1OsijNRe9LHoQQsWiF2-3" value="（タイム&lt;br&gt;スケジュール）" style="shape=note;size=20;whiteSpace=wrap;html=1;" vertex="1" parent="1">
          <mxGeometry x="90" y="1000" width="100" height="100" as="geometry" />
        </mxCell>
        <mxCell id="e1OsijNRe9LHoQQsWiF2-4" value="状態登録" style="shape=note;size=20;whiteSpace=wrap;html=1;" vertex="1" parent="1">
          <mxGeometry x="90" y="850" width="100" height="100" as="geometry" />
        </mxCell>
        <mxCell id="e1OsijNRe9LHoQQsWiF2-5" value="状態確認" style="shape=note;size=20;whiteSpace=wrap;html=1;" vertex="1" parent="1">
          <mxGeometry x="260" y="850" width="100" height="100" as="geometry" />
        </mxCell>
      </root>
    </mxGraphModel>
  </diagram>
  <diagram id="kWc-mTNP-SM4K6RoVPDv" name="画面イメージ図">
    <mxGraphModel dx="1120" dy="772" grid="1" gridSize="10" guides="1" tooltips="1" connect="1" arrows="1" fold="1" page="1" pageScale="1" pageWidth="827" pageHeight="1169" math="0" shadow="0">
      <root>
        <mxCell id="0" />
        <mxCell id="1" parent="0" />
        <mxCell id="mq9Kqd4o0ABznLyXdfXC-1" value="つくる画面" style="swimlane;fontStyle=0;childLayout=stackLayout;horizontal=1;startSize=30;horizontalStack=0;resizeParent=1;resizeParentMax=0;resizeLast=0;collapsible=1;marginBottom=0;" parent="1" vertex="1">
          <mxGeometry x="80" y="80" width="140" height="240" as="geometry" />
        </mxCell>
        <mxCell id="mq9Kqd4o0ABznLyXdfXC-2" value="ログイン" style="text;strokeColor=none;fillColor=none;align=left;verticalAlign=middle;spacingLeft=4;spacingRight=4;overflow=hidden;points=[[0,0.5],[1,0.5]];portConstraint=eastwest;rotatable=0;" parent="mq9Kqd4o0ABznLyXdfXC-1" vertex="1">
          <mxGeometry y="30" width="140" height="30" as="geometry" />
        </mxCell>
        <mxCell id="mq9Kqd4o0ABznLyXdfXC-3" value="状態切り替え画面" style="text;strokeColor=none;fillColor=none;align=left;verticalAlign=middle;spacingLeft=4;spacingRight=4;overflow=hidden;points=[[0,0.5],[1,0.5]];portConstraint=eastwest;rotatable=0;" parent="mq9Kqd4o0ABznLyXdfXC-1" vertex="1">
          <mxGeometry y="60" width="140" height="30" as="geometry" />
        </mxCell>
        <mxCell id="mq9Kqd4o0ABznLyXdfXC-4" value="ログアウト" style="text;strokeColor=none;fillColor=none;align=left;verticalAlign=middle;spacingLeft=4;spacingRight=4;overflow=hidden;points=[[0,0.5],[1,0.5]];portConstraint=eastwest;rotatable=0;" parent="mq9Kqd4o0ABznLyXdfXC-1" vertex="1">
          <mxGeometry y="90" width="140" height="30" as="geometry" />
        </mxCell>
        <mxCell id="mq9Kqd4o0ABznLyXdfXC-5" value="アカウント登録" style="text;html=1;strokeColor=none;fillColor=none;align=center;verticalAlign=middle;whiteSpace=wrap;rounded=0;" parent="mq9Kqd4o0ABznLyXdfXC-1" vertex="1">
          <mxGeometry y="120" width="140" height="30" as="geometry" />
        </mxCell>
        <mxCell id="mq9Kqd4o0ABznLyXdfXC-6" value="状態確認画面" style="text;html=1;strokeColor=none;fillColor=none;align=center;verticalAlign=middle;whiteSpace=wrap;rounded=0;" parent="mq9Kqd4o0ABznLyXdfXC-1" vertex="1">
          <mxGeometry y="150" width="140" height="30" as="geometry" />
        </mxCell>
        <mxCell id="_vgKwqQhAbMXCaaWesCm-1" value="管理者専用画面" style="text;html=1;strokeColor=none;fillColor=none;align=center;verticalAlign=middle;whiteSpace=wrap;rounded=0;" parent="mq9Kqd4o0ABznLyXdfXC-1" vertex="1">
          <mxGeometry y="180" width="140" height="30" as="geometry" />
        </mxCell>
        <mxCell id="_vgKwqQhAbMXCaaWesCm-2" value="（タイムスケジュール）" style="text;html=1;strokeColor=none;fillColor=none;align=center;verticalAlign=middle;whiteSpace=wrap;rounded=0;" parent="mq9Kqd4o0ABznLyXdfXC-1" vertex="1">
          <mxGeometry y="210" width="140" height="30" as="geometry" />
        </mxCell>
      </root>
    </mxGraphModel>
  </diagram>
</mxfile>
